<svg width="45" height="50" viewBox="0 0 45 50" fill="none" xmlns="http://www.w3.org/2000/svg">
<path fill-rule="evenodd" clip-rule="evenodd" d="M4.01235 45.0016L0 0H44.0893L40.0726 44.9942L22.018 50L4.01235 45.0016Z" fill="#0071BC"/>
<path fill-rule="evenodd" clip-rule="evenodd" d="M22.0818 46.1714L36.6527 42.1629L40.0667 3.74768H22.0818V46.1714Z" fill="#29ABE2"/>
<path fill-rule="evenodd" clip-rule="evenodd" d="M9.18433 20.2811L9.66765 25.7922L22.0818 20.2811V14.761L9.18433 20.2811Z" fill="#B3B3B3"/>
<path fill-rule="evenodd" clip-rule="evenodd" d="M35.8308 8.86859L22.0818 14.761V20.2811L35.3567 14.3798L35.8308 8.86859Z" fill="#E6E6E6"/>
<path fill-rule="evenodd" clip-rule="evenodd" d="M22.0816 34.7009L22.039 34.7073L15.8825 33.0539L15.4803 28.658H9.93945L10.7127 37.3183L22.0378 40.454L22.0816 40.4436V34.7009Z" fill="#E6E6E6"/>
<path fill-rule="evenodd" clip-rule="evenodd" d="M22.0818 20.2811V25.7922H28.8222L28.2095 32.9976L22.0818 34.7056V40.4479L33.3693 37.3122L34.8557 20.2811H22.0818Z" fill="white"/>
<path fill-rule="evenodd" clip-rule="evenodd" d="M22.0818 20.2811H9.18433L9.66765 25.7922H22.0818V20.2811Z" fill="#E6E6E6"/>
<path fill-rule="evenodd" clip-rule="evenodd" d="M22.0817 14.3798V8.86859H22.0257H8.20435L8.69341 14.3798H22.0817Z" fill="#E6E6E6"/>
<path fill-rule="evenodd" clip-rule="evenodd" d="M22.0818 8.86859V14.3106V14.3798H35.3567L35.8308 8.86859H22.0818Z" fill="white"/>
</svg>
