<svg width="45" height="50" viewBox="0 0 45 50" fill="none" xmlns="http://www.w3.org/2000/svg">
<path fill-rule="evenodd" clip-rule="evenodd" d="M0 0L4.01235 45.0016L22.018 50L40.0726 44.9942L44.0893 0H0ZM36.6526 42.1629L22.0817 46.1714L22.0817 40.4436L22.0378 40.454L10.7127 37.3183L9.93949 28.658H15.4803L15.8825 33.054L22.039 34.7073L22.0817 34.7009V25.7922L9.66756 25.7922L9.18424 20.2811L22.0817 14.761L22.0817 14.3797H8.69342L8.20436 8.86856H22.0257H22.0817L22.0817 3.7477H40.0666L36.6526 42.1629Z" fill="#C12F62"/>
<path fill-rule="evenodd" clip-rule="evenodd" d="M22.9713 14.3798L22.0817 14.761V20.2811L22.0817 25.7922H28.822L28.2094 32.9976L22.0817 34.7057V40.4479L33.3692 37.3122L34.8555 20.2811H22.0817L35.3566 14.3798L35.8307 8.86859H22.0817V14.3106V14.3798H22.9713Z" fill="#C12F62"/>
</svg>
