<svg width="50" height="50" viewBox="0 0 50 50" fill="none" xmlns="http://www.w3.org/2000/svg">
<g clip-path="url(#clip0_330_420)">
<path fill-rule="evenodd" clip-rule="evenodd" d="M16.7318 0C12.1318 0 8.39844 3.73333 8.39844 8.33333C8.39844 12.9333 12.1318 16.6667 16.7318 16.6667C12.1318 16.6667 8.39844 20.4 8.39844 25C8.39844 29.6 12.1318 33.3333 16.7318 33.3333C12.1318 33.3333 8.39844 37.0667 8.39844 41.6667C8.39844 46.2667 12.1318 50 16.7318 50C21.3318 50 25.0651 46.2667 25.0651 41.6667L25.0651 25C25.0651 29.6 28.7984 33.3333 33.3984 33.3333C37.9984 33.3333 41.7318 29.6 41.7318 25C41.7318 20.4 37.9984 16.6667 33.3984 16.6667C37.9984 16.6667 41.7318 12.9333 41.7318 8.33333C41.7318 3.73333 37.9984 0 33.3984 0H16.7318ZM33.3984 16.6667H25.0651L25.0651 25C25.0651 20.4 28.7984 16.6667 33.3984 16.6667Z" fill="#C12F62"/>
</g>
<defs>
<clipPath id="clip0_330_420">
<rect width="50" height="50" fill="white"/>
</clipPath>
</defs>
</svg>
