<svg width="51" height="50" viewBox="0 0 51 50" fill="none" xmlns="http://www.w3.org/2000/svg">
<path fill-rule="evenodd" clip-rule="evenodd" d="M49.0592 22.7726L27.228 0.943075C25.9717 -0.314359 23.9325 -0.314359 22.6745 0.943075L18.1413 5.47631L23.8919 11.2269C25.2283 10.7754 26.7606 11.0783 27.826 12.1437C28.8964 13.2157 29.197 14.7611 28.7346 16.102L34.2767 21.6441C35.6175 21.1822 37.1646 21.4812 38.2355 22.5537C39.7322 24.0498 39.7322 26.4747 38.2355 27.9719C36.7384 29.469 34.3135 29.469 32.8157 27.9719C31.69 26.845 31.4118 25.1915 31.9818 23.8046L26.8133 18.636L26.8127 32.2374C27.1776 32.4184 27.5221 32.6593 27.826 32.9621C29.3227 34.4582 29.3227 36.8831 27.826 38.3814C26.3289 39.878 23.9029 39.878 22.4079 38.3814C20.9113 36.8831 20.9113 34.4582 22.4079 32.9621C22.7777 32.5929 23.2056 32.3136 23.662 32.126V18.3979C23.2056 18.2114 22.7782 17.9338 22.4079 17.5618C21.2739 16.4295 21.0012 14.7655 21.5822 13.3731L15.9139 7.7037L0.94483 22.6717C-0.313153 23.9302 -0.313153 25.9694 0.94483 27.2268L22.776 49.0569C24.0329 50.3144 26.0716 50.3144 27.3301 49.0569L49.0592 27.3283C50.3167 26.0704 50.3167 24.03 49.0592 22.7726" fill="#DE4C36"/>
</svg>
