<svg width="50" height="50" viewBox="0 0 50 50" fill="none" xmlns="http://www.w3.org/2000/svg">
<path fill-rule="evenodd" clip-rule="evenodd" d="M49.0579 22.7726L27.2267 0.943075C25.9704 -0.314359 23.9312 -0.314359 22.6732 0.943075L18.1399 5.47631L23.8906 11.2269C25.227 10.7754 26.7593 11.0783 27.8247 12.1437C28.8951 13.2157 29.1957 14.7611 28.7332 16.102L34.2754 21.6441C35.6162 21.1822 37.1633 21.4812 38.2342 22.5537C39.7308 24.0498 39.7308 26.4747 38.2342 27.9719C36.737 29.469 34.3121 29.469 32.8144 27.9719C31.6886 26.845 31.4105 25.1915 31.9805 23.8046L26.8119 18.636L26.8114 32.2374C27.1762 32.4184 27.5208 32.6593 27.8247 32.9621C29.3213 34.4582 29.3213 36.8831 27.8247 38.3814C26.3275 39.878 23.9015 39.878 22.4065 38.3814C20.9099 36.8831 20.9099 34.4582 22.4065 32.9621C22.7763 32.5929 23.2042 32.3136 23.6607 32.126V18.3979C23.2042 18.2114 22.7769 17.9338 22.4065 17.5618C21.2725 16.4295 20.9999 14.7655 21.5809 13.3731L15.9125 7.7037L0.943487 22.6717C-0.314496 23.9302 -0.314496 25.9694 0.943487 27.2268L22.7747 49.0569C24.0316 50.3144 26.0702 50.3144 27.3287 49.0569L49.0579 27.3283C50.3153 26.0704 50.3153 24.03 49.0579 22.7726Z" fill="#C12F62"/>
</svg>
