<svg width="50" height="50" viewBox="0 0 50 50" fill="none" xmlns="http://www.w3.org/2000/svg">
<path fill-rule="evenodd" clip-rule="evenodd" d="M38.7436 38.5254C38.7436 41.206 32.5339 43.3659 24.8777 43.3659C17.2215 43.3659 11.0118 41.1867 11.0118 38.5254C11.0118 35.8448 17.2215 33.6849 24.8777 33.6849C32.5339 33.6849 38.7436 35.8448 38.7436 38.5254V38.5254V38.5254Z" fill="#9EDCF2"/>
<mask id="mask0_308_2963" style="mask-type:luminance" maskUnits="userSpaceOnUse" x="17" y="36" width="16" height="14">
<path fill-rule="evenodd" clip-rule="evenodd" d="M18.9186 47.2037C19.2272 48.65 19.9793 49.4986 20.7314 50H28.6576C29.6218 49.3443 30.6054 48.1101 30.6054 45.7959V39.8175C30.6054 39.8175 30.7211 38.3326 32.0903 37.8504C32.0903 37.8504 32.881 37.2912 32.0325 36.9826C32.0325 36.9826 28.2719 36.674 28.2719 39.7596V44.3109C28.2719 44.3109 28.4261 45.9887 27.539 46.683V41.0517C27.539 41.0517 27.5969 39.2582 28.5226 38.5833C28.5226 38.5833 29.1397 37.484 27.7897 37.7733C27.7897 37.7733 25.2055 38.1397 25.0898 41.1675L25.032 46.953H24.4149L24.357 41.1675C24.2413 38.159 21.6571 37.7733 21.6571 37.7733C20.3071 37.4647 20.9243 38.5833 20.9243 38.5833C21.85 39.2582 21.9078 41.0517 21.9078 41.0517V46.7408C21.0207 46.1044 21.175 44.3109 21.175 44.3109V39.7596C21.175 36.674 17.4144 36.9826 17.4144 36.9826C16.5466 37.2912 17.3565 37.8504 17.3565 37.8504C18.7065 38.3518 18.8415 39.8175 18.8415 39.8175V44.0024L18.9186 47.2037V47.2037Z" fill="white"/>
</mask>
<g mask="url(#mask0_308_2963)">
<path fill-rule="evenodd" clip-rule="evenodd" d="M38.7436 38.5254C38.7436 41.206 32.5339 43.3659 24.8777 43.3659C17.2215 43.3659 11.0118 41.1867 11.0118 38.5254C11.0118 35.8448 17.2215 33.6849 24.8777 33.6849C32.5339 33.6849 38.7436 35.8448 38.7436 38.5254V38.5254V38.5254Z" fill="#7DBCE7"/>
</g>
<path fill-rule="evenodd" clip-rule="evenodd" d="M9.04468 24.2738L8.6397 25.6623C8.6397 25.6623 8.54327 26.1637 9.00611 26.2601C9.50752 26.2408 9.46895 25.778 9.43038 25.643L9.04468 24.2738V24.2738V24.2738Z" fill="#9EDCF2"/>
<path fill-rule="evenodd" clip-rule="evenodd" d="M49.3311 18.4304L49.3697 18.2568C45.3006 17.4469 41.135 17.4276 38.6086 17.5433C39.0136 16.0583 39.1486 14.3227 39.1486 12.4135C39.1486 9.6557 38.1072 7.45721 36.4487 5.7987C36.738 4.85373 37.1237 2.75166 36.063 0.0710393C36.063 0.0710393 34.1731 -0.526797 29.8725 2.34667C28.1947 1.9224 26.4012 1.71027 24.6077 1.71027C22.6406 1.71027 20.6543 1.96097 18.7836 2.46238C14.3481 -0.565367 12.4003 0.0517542 12.4003 0.0517542C11.1275 3.23379 11.9182 5.60585 12.1496 6.1844C10.6453 7.80434 9.73894 9.86784 9.73894 12.3942C9.73894 14.3034 9.95108 16.0198 10.4911 17.5047C7.94544 17.4083 3.93415 17.4469 0 18.2375L0.0385701 18.4111C3.97272 17.6204 8.02258 17.6011 10.5489 17.6976C10.6646 18.0061 10.7996 18.3147 10.9346 18.604C8.42756 18.6811 4.16557 19.0089 0.0771402 20.166L0.134995 20.3396C4.26199 19.1825 8.56256 18.874 11.0503 18.7968C12.5546 21.5739 15.4859 23.3867 20.7314 23.9459C19.9793 24.4473 19.2272 25.2959 18.9186 26.7422C17.8965 27.2244 14.6952 28.42 12.7667 25.103C12.7667 25.103 11.6867 23.1359 9.62323 22.9817C9.62323 22.9817 7.61759 22.9431 9.48824 24.2352C9.48824 24.2352 10.8189 24.8716 11.7446 27.2437C11.7446 27.2437 12.9595 31.2935 18.7643 29.9821V34.1284C18.7643 34.1284 18.6486 35.6134 17.2794 36.0955C17.2794 36.0955 16.4694 36.6548 17.3372 36.9633C17.3372 36.9633 21.0978 37.2719 21.0978 34.1863V29.635C21.0978 29.635 20.9436 27.8222 21.8307 27.2051V34.6877C21.8307 34.6877 21.7728 36.4812 20.8471 37.1562C20.8471 37.1562 20.23 38.2554 21.58 37.9661C21.58 37.9661 24.1642 37.5997 24.2799 34.572L24.3377 26.9929H24.9548L25.0127 34.572C25.1284 37.5804 27.7126 37.9661 27.7126 37.9661C29.0626 38.2747 28.4454 37.1562 28.4454 37.1562C27.5197 36.4812 27.4619 34.6877 27.4619 34.6877V27.2629C28.349 27.9572 28.1947 29.635 28.1947 29.635V34.1863C28.1947 37.2719 31.9553 36.9633 31.9553 36.9633C32.8231 36.6548 32.0132 36.0955 32.0132 36.0955C30.6632 35.5941 30.5282 34.1284 30.5282 34.1284V28.1501C30.5282 25.8166 29.5447 24.5823 28.5804 23.9459C34.1731 23.3867 36.8537 21.5931 38.0879 18.7775C40.5371 18.8354 44.9534 19.1439 49.1576 20.3396L49.2154 20.166C45.0306 18.9897 40.6529 18.6811 38.1651 18.604C38.2808 18.3147 38.3772 18.0254 38.4736 17.7168C41.0578 17.6204 45.2427 17.6204 49.3311 18.4304Z" fill="#010101"/>
<path fill-rule="evenodd" clip-rule="evenodd" d="M33.6717 12.2785C34.8674 13.3777 35.5809 14.6891 35.5809 16.0969C35.5809 22.731 30.6439 22.9045 24.5499 22.9045C18.4558 22.9045 13.5188 21.9788 13.5188 16.0969C13.5188 14.6891 14.2131 13.3777 15.4087 12.2978C17.3951 10.485 20.7507 11.4492 24.5499 11.4492C28.349 11.4492 31.6853 10.4657 33.6717 12.2785Z" fill="#F5CCB3"/>
<path fill-rule="evenodd" clip-rule="evenodd" d="M20.8857 16.444C20.8857 18.2761 19.8636 19.7418 18.5908 19.7418C17.318 19.7418 16.2959 18.2568 16.2959 16.444C16.2959 14.612 17.318 13.1463 18.5908 13.1463C19.8636 13.127 20.8857 14.612 20.8857 16.444V16.444V16.444Z" fill="white"/>
<path fill-rule="evenodd" clip-rule="evenodd" d="M20.1529 16.4826C20.1529 17.6976 19.4586 18.6811 18.6293 18.6811C17.7808 18.6811 17.1058 17.6976 17.1058 16.4826C17.1058 15.2676 17.8001 14.2841 18.6293 14.2841C19.4586 14.2841 20.1529 15.2676 20.1529 16.4826V16.4826V16.4826Z" fill="#AF5C51"/>
<path fill-rule="evenodd" clip-rule="evenodd" d="M33.2088 16.444C33.2088 18.2761 32.1867 19.7418 30.9139 19.7418C29.6411 19.7418 28.619 18.2568 28.619 16.444C28.619 14.612 29.6411 13.1463 30.9139 13.1463C32.1674 13.127 33.2088 14.612 33.2088 16.444V16.444V16.444Z" fill="white"/>
<path fill-rule="evenodd" clip-rule="evenodd" d="M32.4567 16.4826C32.4567 17.6976 31.7625 18.6811 30.9332 18.6811C30.0847 18.6811 29.4097 17.6976 29.4097 16.4826C29.4097 15.2676 30.1039 14.2841 30.9332 14.2841C31.7817 14.2841 32.4567 15.2676 32.4567 16.4826V16.4826V16.4826Z" fill="#AF5C51"/>
<path fill-rule="evenodd" clip-rule="evenodd" d="M25.167 19.3754C25.167 19.6839 24.9163 19.9539 24.5884 19.9539C24.2799 19.9539 24.0099 19.7032 24.0099 19.3754C24.0099 19.0475 24.2606 18.7968 24.5884 18.7968C24.897 18.7968 25.167 19.0475 25.167 19.3754V19.3754V19.3754Z" fill="#AF5C51"/>
<path fill-rule="evenodd" clip-rule="evenodd" d="M23.2578 20.8217C23.2192 20.7253 23.277 20.6289 23.3735 20.5903C23.4699 20.5518 23.5663 20.6096 23.6049 20.706C23.7592 21.1303 24.1449 21.4003 24.5884 21.4003C25.032 21.4003 25.4177 21.111 25.572 20.706C25.6105 20.6096 25.707 20.5518 25.8034 20.5903C25.8998 20.6289 25.9577 20.7253 25.9191 20.8217C25.7262 21.381 25.1863 21.7667 24.5884 21.7667C23.9906 21.7667 23.4506 21.381 23.2578 20.8217V20.8217V20.8217Z" fill="#AF5C51"/>
<path fill-rule="evenodd" clip-rule="evenodd" d="M10.5104 23.4445C10.5104 23.5988 10.3368 23.7145 10.1054 23.7145C9.89323 23.7145 9.70038 23.5988 9.70038 23.4445C9.70038 23.2902 9.87394 23.1745 10.1054 23.1745C10.3368 23.1745 10.5104 23.2902 10.5104 23.4445V23.4445V23.4445Z" fill="#C4E5D9"/>
<path fill-rule="evenodd" clip-rule="evenodd" d="M11.6289 24.0616C11.6289 24.2159 11.4553 24.3316 11.2239 24.3316C11.0118 24.3316 10.8189 24.2159 10.8189 24.0616C10.8189 23.9073 10.9925 23.7916 11.2239 23.7916C11.4553 23.7916 11.6289 23.9073 11.6289 24.0616V24.0616V24.0616Z" fill="#C4E5D9"/>
<path fill-rule="evenodd" clip-rule="evenodd" d="M12.3039 24.8716C12.3039 25.0259 12.1303 25.1416 11.8989 25.1416C11.6867 25.1416 11.4939 25.0259 11.4939 24.8716C11.4939 24.7173 11.6674 24.6016 11.8989 24.6016C12.1303 24.5823 12.3039 24.7173 12.3039 24.8716V24.8716V24.8716Z" fill="#C4E5D9"/>
<path fill-rule="evenodd" clip-rule="evenodd" d="M12.921 25.7973C12.921 25.9516 12.7474 26.0673 12.516 26.0673C12.3039 26.0673 12.111 25.9516 12.111 25.7973C12.111 25.643 12.2846 25.5273 12.516 25.5273C12.7474 25.508 12.921 25.643 12.921 25.7973V25.7973V25.7973Z" fill="#C4E5D9"/>
<path fill-rule="evenodd" clip-rule="evenodd" d="M13.596 26.6458C13.596 26.8001 13.4224 26.9158 13.191 26.9158C12.9788 26.9158 12.786 26.8001 12.786 26.6458C12.786 26.4915 12.9595 26.3758 13.191 26.3758C13.4224 26.3758 13.596 26.4915 13.596 26.6458V26.6458V26.6458Z" fill="#C4E5D9"/>
<path fill-rule="evenodd" clip-rule="evenodd" d="M14.5216 27.3979C14.5216 27.5522 14.3481 27.6679 14.1166 27.6679C13.9045 27.6679 13.7117 27.5522 13.7117 27.3979C13.7117 27.2437 13.8852 27.1279 14.1166 27.1279C14.3481 27.1087 14.5216 27.2437 14.5216 27.3979V27.3979V27.3979Z" fill="#C4E5D9"/>
<path fill-rule="evenodd" clip-rule="evenodd" d="M15.8137 27.8801C15.8137 28.0343 15.6402 28.1501 15.4087 28.1501C15.1966 28.1501 15.0038 28.0343 15.0038 27.8801C15.0038 27.7258 15.1773 27.6101 15.4087 27.6101C15.6402 27.6101 15.8137 27.7258 15.8137 27.8801V27.8801V27.8801Z" fill="#C4E5D9"/>
<path fill-rule="evenodd" clip-rule="evenodd" d="M17.1058 27.8801C17.1058 28.0343 16.9323 28.1501 16.7008 28.1501C16.4887 28.1501 16.2959 28.0343 16.2959 27.8801C16.2959 27.7258 16.4694 27.6101 16.7008 27.6101C16.9323 27.6101 17.1058 27.7258 17.1058 27.8801V27.8801V27.8801Z" fill="#C4E5D9"/>
<path fill-rule="evenodd" clip-rule="evenodd" d="M18.4172 27.6679C18.4172 27.8222 18.2436 27.9379 18.0122 27.9379C17.8001 27.9379 17.6072 27.8222 17.6072 27.6679C17.6072 27.5136 17.7808 27.3979 18.0122 27.3979C18.2244 27.3979 18.4172 27.5136 18.4172 27.6679V27.6679V27.6679Z" fill="#C4E5D9"/>
</svg>
