<svg width="50" height="50" viewBox="0 0 50 50" fill="none" xmlns="http://www.w3.org/2000/svg">
<g id="Type=Default, showSymbol=True, showText=False">
<g id="symbol">
<path id="Shape" fill-rule="evenodd" clip-rule="evenodd" d="M6.94191 45.0018L2.92969 0H47.0171L43.0007 44.9948L24.9464 50L6.94191 45.0018Z" fill="#C12F62"/>
<path id="Shape_2" fill-rule="evenodd" clip-rule="evenodd" d="M24.9734 46.1742L39.5621 42.1297L42.9944 3.67957H24.9734V46.1742Z" fill="#C12F62"/>
<g id="Union">
<path d="M17.6698 20.3701H24.9733V25.8893H12.6222L11.1335 9.19891H24.9733V14.7183H17.1654L17.6698 20.3701Z" fill="#090E16"/>
<path d="M24.9491 34.7107L24.9733 34.7043V40.4467L24.9479 40.4537L13.6421 37.3151L12.8688 28.6491H18.4093L18.8022 33.0509L24.9491 34.7107Z" fill="#090E16"/>
</g>
<g id="Union_2">
<path d="M24.9543 9.19891H38.7802L38.2861 14.7183H24.9543V9.19891Z" fill="#090E16"/>
<path d="M24.9543 25.8893V20.3701H37.7838L37.6492 21.8522L36.2692 37.3151L24.9543 40.451V34.7089L31.1101 33.0474L31.7507 25.8893H24.9543Z" fill="#090E16"/>
</g>
</g>
</g>
</svg>
