<svg width="45" height="50" viewBox="0 0 45 50" fill="none" xmlns="http://www.w3.org/2000/svg">
<path fill-rule="evenodd" clip-rule="evenodd" d="M4.01223 45.0018L0 0H44.0875L40.071 44.9948L22.0167 50L4.01223 45.0018Z" fill="#E44D26"/>
<path fill-rule="evenodd" clip-rule="evenodd" d="M22.0437 46.1742L36.6324 42.1297L40.0648 3.67957H22.0437V46.1742Z" fill="#F16529"/>
<path d="M14.7404 20.3701H22.0439V25.8893H9.69275L8.2041 9.19891H22.0439V14.7183H14.236L14.7404 20.3701Z" fill="#EBEBEB"/>
<path d="M22.0197 34.7107L22.0439 34.7043V40.4467L22.0185 40.4537L10.7126 37.3151L9.93936 28.6491H15.4799L15.8728 33.0509L22.0197 34.7107Z" fill="#EBEBEB"/>
<path d="M22.0247 9.19891H35.8506L35.3564 14.7183H22.0247V9.19891Z" fill="white"/>
<path d="M22.0247 25.8893V20.3701H34.8542L34.7195 21.8522L33.3395 37.3151L22.0247 40.451V34.7089L28.1804 33.0474L28.8211 25.8893H22.0247Z" fill="white"/>
</svg>
