<svg width="50" height="50" viewBox="0 0 50 50" fill="none" xmlns="http://www.w3.org/2000/svg">
<g id="Javascript/Default" clip-path="url(#clip0_335_250)">
<path id="Shape" fill-rule="evenodd" clip-rule="evenodd" d="M0.585938 0.585938H49.4141V49.4141H0.585938V0.585938Z" fill="#F7DF1E"/>
<path id="Shape_2" fill-rule="evenodd" clip-rule="evenodd" d="M13.4249 41.3903L17.1616 39.1289C17.8824 40.4071 18.5382 41.4885 20.1112 41.4885C21.6189 41.4885 22.5695 40.8987 22.5695 38.6045V23.0028H27.1581V38.6694C27.1581 43.422 24.3723 45.5852 20.3079 45.5852C16.6372 45.5852 14.5064 43.6841 13.4248 41.3899" fill="black"/>
<path id="Shape_3" fill-rule="evenodd" clip-rule="evenodd" d="M29.6504 40.8986L33.3866 38.7354C34.3701 40.3416 35.6484 41.5214 37.9099 41.5214C39.8111 41.5214 41.0235 40.5708 41.0235 39.2598C41.0235 37.6865 39.7781 37.1292 37.6804 36.2118L36.5335 35.7198C33.2229 34.3107 31.0268 32.5408 31.0268 28.8042C31.0268 25.3627 33.6489 22.7404 37.7461 22.7404C40.6632 22.7404 42.7609 23.7566 44.2684 26.4115L40.6958 28.7057C39.9091 27.2965 39.0572 26.7394 37.7462 26.7394C36.4023 26.7394 35.5501 27.5915 35.5501 28.7057C35.5501 30.0824 36.4023 30.6397 38.3687 31.492L39.5158 31.9836C43.4162 33.6553 45.6123 35.3595 45.6123 39.1942C45.6123 43.3243 42.3675 45.5856 38.0083 45.5856C33.7474 45.5856 30.9941 43.5536 29.6505 40.8986" fill="black"/>
</g>
<defs>
<clipPath id="clip0_335_250">
<rect width="50" height="50" fill="white"/>
</clipPath>
</defs>
</svg>
