<svg width="50" height="50" viewBox="0 0 50 50" fill="none" xmlns="http://www.w3.org/2000/svg">
<g id="Type=Flat" clip-path="url(#clip0_335_254)">
<path id="Shape" fill-rule="evenodd" clip-rule="evenodd" d="M0.585938 0.585938H49.4141V49.4141H0.585938V0.585938ZM13.4246 41.3903L13.4247 41.3902C14.5063 43.6843 16.6371 45.5852 20.3076 45.5852C24.3721 45.5852 27.1579 43.422 27.1579 38.6694V23.0028H22.5693V38.6045C22.5693 40.8987 21.6187 41.4885 20.1109 41.4885C18.5379 41.4885 17.8822 40.4071 17.1613 39.1289L13.4247 41.3902L13.4246 41.3899L13.4246 41.3903ZM33.3865 38.7354L29.6504 40.8986C30.994 43.5536 33.7473 45.5856 38.0082 45.5856C42.3674 45.5856 45.6122 43.3243 45.6122 39.1942C45.6122 35.3595 43.4161 33.6553 39.5157 31.9836L38.3686 31.492C36.4022 30.6397 35.55 30.0824 35.55 28.7057C35.55 27.5915 36.4022 26.7394 37.7461 26.7394C39.0571 26.7394 39.909 27.2965 40.6957 28.7057L44.2684 26.4115C42.7608 23.7566 40.6631 22.7404 37.746 22.7404C33.6488 22.7404 31.0267 25.3626 31.0267 28.8042C31.0267 32.5408 33.2228 34.3107 36.5334 35.7198L37.6803 36.2118C39.778 37.1292 41.0235 37.6865 41.0235 39.2598C41.0235 40.5708 39.811 41.5214 37.9098 41.5214C35.6483 41.5214 34.37 40.3416 33.3865 38.7354Z" fill="#777DF2"/>
</g>
<defs>
<clipPath id="clip0_335_254">
<rect width="50" height="50" fill="white"/>
</clipPath>
</defs>
</svg>
