<svg width="40" height="40" viewBox="0 0 40 40" fill="none" xmlns="http://www.w3.org/2000/svg">
<g id="Type=Default" clip-path="url(#clip0_335_250)">
<path id="Shape" fill-rule="evenodd" clip-rule="evenodd" d="M0.46875 0.46875H39.5312V39.5312H0.46875V0.46875V0.46875Z" fill="#C12F62"/>
<path id="Shape_2" fill-rule="evenodd" clip-rule="evenodd" d="M10.7393 33.1122L13.7287 31.3031C14.3054 32.3256 14.83 33.1908 16.0883 33.1908C17.2946 33.1908 18.055 32.7189 18.055 30.8836V18.4022H21.7259V30.9355C21.7259 34.7376 19.4973 36.4682 16.2457 36.4682C13.3091 36.4682 11.6045 34.9473 10.7393 33.1119" fill="#090E16"/>
<path id="Shape_3" fill-rule="evenodd" clip-rule="evenodd" d="M23.7207 32.7189L26.7097 30.9883C27.4965 32.2733 28.5191 33.2172 30.3283 33.2172C31.8493 33.2172 32.8192 32.4567 32.8192 31.4078C32.8192 30.1492 31.8229 29.7034 30.1447 28.9694L29.2272 28.5758C26.5787 27.4486 24.8218 26.0326 24.8218 23.0434C24.8218 20.2901 26.9195 18.1924 30.1973 18.1924C32.531 18.1924 34.2091 19.0053 35.4151 21.1292L32.557 22.9646C31.9277 21.8372 31.2461 21.3915 30.1973 21.3915C29.1222 21.3915 28.4404 22.0732 28.4404 22.9646C28.4404 24.0659 29.1222 24.5118 30.6953 25.1936L31.613 25.5869C34.7334 26.9242 36.4902 28.2876 36.4902 31.3554C36.4902 34.6594 33.8944 36.4685 30.407 36.4685C26.9983 36.4685 24.7957 34.8429 23.7208 32.7189" fill="#090E16"/>
</g>
<defs>
<clipPath id="clip0_335_250">
<rect width="40" height="40" fill="white"/>
</clipPath>
</defs>
</svg>
