<svg width="41" height="40" viewBox="0 0 41 40" fill="none" xmlns="http://www.w3.org/2000/svg">
<path d="M18.6351 5.20044L19.502 6.82861C19.6969 7.12907 19.908 7.39502 20.1567 7.64269C20.8858 8.36271 21.5654 9.13118 22.1909 9.94284C23.6597 11.8715 24.6504 14.0133 25.3579 16.3297C25.7822 17.7447 26.0126 19.1962 26.0299 20.664C26.1009 25.0521 24.5966 28.8201 21.5636 31.9516C21.0702 32.4482 20.5372 32.9037 19.9699 33.3138C19.6694 33.3138 19.5273 33.0834 19.4035 32.8712C19.178 32.4778 19.0279 32.0458 18.9609 31.5973C18.8543 31.0664 18.7843 30.5355 18.8188 29.9874V29.7397C18.7945 29.6869 18.5295 5.32529 18.6351 5.20044Z" fill="#599636"/>
<path d="M18.6351 5.14662C18.5996 5.07556 18.564 5.12936 18.5285 5.16387C18.5458 5.51915 18.4219 5.83585 18.2281 6.13834C18.0149 6.4388 17.7327 6.66922 17.4495 6.9169C15.8761 8.27912 14.6378 9.92454 13.646 11.7649C12.3264 14.2416 11.6463 16.896 11.4535 19.6905C11.3652 20.6985 11.7722 24.2553 12.0899 25.2815C12.9568 28.006 14.5139 30.2889 16.5309 32.2703C17.0262 32.7474 17.5561 33.1899 18.1042 33.6152C18.2636 33.6152 18.2808 33.4731 18.3174 33.3676C18.3872 33.1417 18.4405 32.911 18.4767 32.6773L18.832 30.0239L18.6351 5.14662Z" fill="#6CAC48"/>
<path d="M19.502 34.3918C19.5375 33.9858 19.7324 33.6488 19.9445 33.3128C19.7314 33.2245 19.573 33.0489 19.4492 32.853C19.3424 32.6675 19.254 32.472 19.1853 32.2693C18.9376 31.5263 18.8848 30.7467 18.8138 29.9874V29.5276C18.7254 29.5986 18.7072 30.1996 18.7072 30.2889C18.6555 31.0914 18.549 31.8894 18.3884 32.6773C18.3357 32.9961 18.3001 33.3138 18.1042 33.597C18.1042 33.6325 18.1042 33.6681 18.1215 33.7208C18.4402 34.6588 18.5275 35.6139 18.5813 36.5874V36.9427C18.5813 37.367 18.564 37.2776 18.9163 37.4197C19.0584 37.4725 19.2167 37.4908 19.3588 37.5964C19.4654 37.5964 19.4827 37.5081 19.4827 37.437L19.4299 36.8533V35.2252C19.4126 34.941 19.4654 34.6588 19.501 34.3928L19.502 34.3918Z" fill="#C2BFBF"/>
</svg>
