<svg width="50" height="50" viewBox="0 0 50 50" fill="none" xmlns="http://www.w3.org/2000/svg">
<g id="Type=Flat, showText=True, showSymbol=False">
<g id="Union">
<path fill-rule="evenodd" clip-rule="evenodd" d="M33.4877 15.3659C33.5669 15.3207 33.6799 15.3207 33.7703 15.3659L36.6297 16.9595C36.8105 17.0612 36.9235 17.2534 36.9235 17.4681V31.2452C36.9235 31.4487 36.8105 31.6408 36.6297 31.7425L31.8376 34.5115C31.6568 34.6132 31.4421 34.6132 31.2612 34.5115L26.4692 31.7425C26.2884 31.6408 26.1754 31.4487 26.1754 31.2452V25.7186C26.1754 25.5151 26.2884 25.323 26.4692 25.2213L31.2612 22.4523C31.4421 22.3506 31.6568 22.3506 31.8376 22.4523L33.0357 23.1417C33.1035 23.1756 33.1713 23.1756 33.2391 23.1417C33.3069 23.0965 33.3408 23.0287 33.3408 22.9609V15.6146C33.3408 15.5129 33.3973 15.4224 33.4877 15.3659ZM31.6229 30.4993L33.2617 29.5499C33.3069 29.5273 33.3295 29.4821 33.3295 29.4256V27.5269C33.3295 27.4817 33.3069 27.4252 33.2617 27.4026L31.6229 26.4532C31.5777 26.4306 31.5212 26.4306 31.4759 26.4532L29.8372 27.4026C29.7919 27.4252 29.7693 27.4704 29.7693 27.5269V29.4256C29.7693 29.4708 29.7919 29.5273 29.8372 29.5499L31.4759 30.4993C31.5212 30.5219 31.5777 30.5219 31.6229 30.4993Z" fill="#C12F62"/>
<path d="M10.7369 25.5716C10.7369 25.3682 10.6239 25.1761 10.443 25.0743L5.651 22.3167C5.57188 22.2715 5.48147 22.2489 5.39105 22.2375H5.34584C5.25543 22.2375 5.16501 22.2715 5.0859 22.3167L0.293852 25.0743C0.11302 25.1761 0 25.3682 0 25.5716L0.011302 32.9857C0.011302 33.0875 0.0678119 33.1892 0.158228 33.2344C0.248644 33.2909 0.361664 33.2909 0.440778 33.2344L3.28888 31.6069C3.46971 31.5052 3.58273 31.313 3.58273 31.1096V27.6399C3.58273 27.4365 3.69575 27.2443 3.87658 27.1426L5.0859 26.4419C5.17631 26.3854 5.27803 26.3628 5.37975 26.3628C5.48147 26.3628 5.58318 26.3854 5.6623 26.4419L6.87161 27.1426C7.05244 27.2443 7.16546 27.4365 7.16546 27.6399V31.1096C7.16546 31.313 7.27848 31.5052 7.45931 31.6069L10.3074 33.2344C10.3978 33.2909 10.5109 33.2909 10.6013 33.2344C10.6917 33.1892 10.7482 33.0875 10.7482 32.9857L10.7369 25.5716Z" fill="#C12F62"/>
<path d="M46.8694 29.1431L49.7174 27.4817C49.8983 27.38 50 27.1878 50 26.9844V25.6394C50 25.436 49.887 25.2439 49.7174 25.1422L44.9593 22.3845C44.7785 22.2828 44.5637 22.2828 44.3829 22.3845L39.5909 25.1535C39.41 25.2552 39.297 25.4473 39.297 25.6508V31.1774C39.297 31.3809 39.41 31.573 39.5909 31.6747L44.349 34.3872C44.5298 34.4889 44.7446 34.4889 44.9141 34.3872L47.7961 32.7823C47.8865 32.7371 47.943 32.6354 47.943 32.5337C47.943 32.4319 47.8865 32.3302 47.7961 32.285L42.9815 29.516C42.891 29.4595 42.8345 29.3691 42.8345 29.2674V27.5382C42.8345 27.4365 42.891 27.3347 42.9815 27.2895L44.4846 26.4306C44.575 26.3741 44.6881 26.3741 44.7785 26.4306L46.2816 27.2895C46.3721 27.346 46.4286 27.4365 46.4286 27.5382V28.8944C46.4286 28.9961 46.4851 29.0979 46.5755 29.1431C46.6659 29.1996 46.7789 29.1996 46.8694 29.1431Z" fill="#C12F62"/>
<path d="M44.7107 27.2217C44.6768 27.1991 44.6315 27.1991 44.5976 27.2217L43.6822 27.7529C43.6483 27.7755 43.6257 27.8094 43.6257 27.8546V28.917C43.6257 28.9622 43.6483 28.9961 43.6822 29.0187L44.5976 29.5499C44.6315 29.5725 44.6768 29.5725 44.7107 29.5499L45.6261 29.0187C45.66 28.9961 45.6826 28.9622 45.6826 28.917V27.8546C45.6826 27.8094 45.66 27.7755 45.6261 27.7529L44.7107 27.2217Z" fill="#C12F62"/>
<path d="M18.5885 22.3449C18.6441 22.3573 18.6984 22.3781 18.75 22.4071L21.1122 23.7705L23.5195 25.1535C23.5693 25.1814 23.6147 25.2163 23.6545 25.2563L23.6551 25.2552C23.7024 25.3025 23.7424 25.3596 23.7716 25.4219C23.8056 25.4933 23.8247 25.5711 23.8247 25.6507V31.1548L23.8246 31.1582C23.8244 31.2008 23.8192 31.2429 23.8094 31.2838L23.8133 31.2904C23.8115 31.2962 23.8097 31.3019 23.8078 31.3076L23.9263 31.5052V31.573L18.637 34.6358L18.5544 34.4809C18.4252 34.5044 18.291 34.4782 18.1737 34.4098L13.3929 31.6634C13.3364 31.6295 13.2799 31.5843 13.2347 31.5278L13.2378 31.5225C13.2092 31.49 13.1835 31.4547 13.1619 31.4173C13.115 31.3378 13.0877 31.249 13.0877 31.1548V25.6507C13.0877 25.4727 13.1829 25.3034 13.3279 25.1957C13.3486 25.1803 13.3703 25.1662 13.3929 25.1535L18.1623 22.4071C18.2534 22.3491 18.3566 22.3276 18.4586 22.3291C18.5043 22.3284 18.5492 22.3322 18.5918 22.3393L18.5885 22.3449Z" fill="#C12F62"/>
<path d="M17.9476 21.4351L18.0154 21.4012L18.038 21.4351H17.9476Z" fill="#C12F62"/>
<path d="M23.9376 31.5052L23.9715 31.5617L23.9376 31.5843V31.5052Z" fill="#C12F62"/>
</g>
</g>
</svg>
