<svg width="50" height="50" viewBox="0 0 50 50" fill="none" xmlns="http://www.w3.org/2000/svg">
<g id="Type=Default, showText=True, showSymbol=False" clip-path="url(#clip0_337_373)">
<g id="Group 1">
<path id="Shape" fill-rule="evenodd" clip-rule="evenodd" d="M10.7369 25.5716C10.7369 25.3682 10.6239 25.1761 10.443 25.0743L5.651 22.3167C5.57188 22.2715 5.48147 22.2489 5.39105 22.2375H5.34584C5.25543 22.2375 5.16501 22.2715 5.0859 22.3167L0.293852 25.0743C0.11302 25.1761 0 25.3682 0 25.5716L0.011302 32.9857C0.011302 33.0875 0.0678119 33.1892 0.158228 33.2344C0.248644 33.2909 0.361664 33.2909 0.440778 33.2344L3.28888 31.6069C3.46971 31.5052 3.58273 31.313 3.58273 31.1096V27.6399C3.58273 27.4365 3.69575 27.2443 3.87658 27.1426L5.0859 26.4419C5.17631 26.3854 5.27803 26.3628 5.37975 26.3628C5.48147 26.3628 5.58318 26.3854 5.6623 26.4419L6.87161 27.1426C7.05244 27.2443 7.16546 27.4365 7.16546 27.6399V31.1096C7.16546 31.313 7.27848 31.5052 7.45931 31.6069L10.3074 33.2344C10.3978 33.2909 10.5109 33.2909 10.6013 33.2344C10.6917 33.1892 10.7482 33.0875 10.7482 32.9857L10.7369 25.5716V25.5716V25.5716Z" fill="#333333"/>
<path id="Shape_2" fill-rule="evenodd" clip-rule="evenodd" d="M33.7707 15.3659C33.6803 15.3207 33.5673 15.3207 33.4882 15.3659C33.3978 15.4224 33.3412 15.5129 33.3412 15.6146V22.9609C33.3412 23.0287 33.3073 23.0965 33.2395 23.1417C33.1717 23.1756 33.1039 23.1756 33.0361 23.1417L31.8381 22.4523C31.6572 22.3506 31.4425 22.3506 31.2617 22.4523L26.4696 25.2213C26.2888 25.323 26.1758 25.5151 26.1758 25.7186V31.2452C26.1758 31.4487 26.2888 31.6408 26.4696 31.7425L31.2617 34.5115C31.4425 34.6132 31.6572 34.6132 31.8381 34.5115L36.6301 31.7425C36.811 31.6408 36.924 31.4487 36.924 31.2452V17.4681C36.924 17.2534 36.811 17.0612 36.6301 16.9595L33.7707 15.3659V15.3659V15.3659ZM33.3299 29.4256C33.3299 29.4821 33.3073 29.5273 33.2621 29.5499L31.6233 30.4993C31.5781 30.5219 31.5216 30.5219 31.4764 30.4993L29.8376 29.5499C29.7924 29.5273 29.7698 29.4708 29.7698 29.4256V27.5269C29.7698 27.4704 29.7924 27.4252 29.8376 27.4026L31.4764 26.4532C31.5216 26.4306 31.5781 26.4306 31.6233 26.4532L33.2621 27.4026C33.3073 27.4252 33.3299 27.4817 33.3299 27.5269V29.4256V29.4256V29.4256Z" fill="#333333"/>
<g id="Group">
<path id="Shape_3" fill-rule="evenodd" clip-rule="evenodd" d="M49.7173 27.4817C49.8981 27.38 49.9999 27.1879 49.9999 26.9844V25.6395C49.9999 25.4361 49.8868 25.2439 49.7173 25.1422L44.9592 22.3845C44.7783 22.2828 44.5636 22.2828 44.3828 22.3845L39.5907 25.1535C39.4099 25.2552 39.2969 25.4474 39.2969 25.6508V31.1775C39.2969 31.3809 39.4099 31.573 39.5907 31.6748L44.3489 34.3872C44.5297 34.4889 44.7444 34.4889 44.914 34.3872L47.796 32.7823C47.8864 32.7371 47.9429 32.6354 47.9429 32.5337C47.9429 32.432 47.8864 32.3303 47.796 32.2851L42.9813 29.5161C42.8909 29.4596 42.8344 29.3691 42.8344 29.2674V27.5382C42.8344 27.4365 42.8909 27.3348 42.9813 27.2896L44.4845 26.4306C44.5749 26.3741 44.6879 26.3741 44.7783 26.4306L46.2815 27.2896C46.3719 27.3461 46.4284 27.4365 46.4284 27.5382V28.8945C46.4284 28.9962 46.4849 29.0979 46.5754 29.1431C46.6658 29.1996 46.7788 29.1996 46.8692 29.1431L49.7173 27.4817V27.4817V27.4817Z" fill="#333333"/>
<path id="Shape_4" fill-rule="evenodd" clip-rule="evenodd" d="M44.5979 27.2218C44.6319 27.1992 44.6771 27.1992 44.711 27.2218L45.6264 27.753C45.6603 27.7756 45.6829 27.8095 45.6829 27.8547V28.9171C45.6829 28.9623 45.6603 28.9962 45.6264 29.0188L44.711 29.55C44.6771 29.5726 44.6319 29.5726 44.5979 29.55L43.6825 29.0188C43.6486 28.9962 43.626 28.9623 43.626 28.9171V27.8547C43.626 27.8095 43.6486 27.7756 43.6825 27.753L44.5979 27.2218V27.2218V27.2218Z" fill="#539E43"/>
</g>
<g id="Group_2">
<g id="mask-3">
<path id="path-2" fill-rule="evenodd" clip-rule="evenodd" d="M18.7499 22.4071C18.5691 22.3054 18.3543 22.3054 18.1735 22.4071L13.4154 25.1535C13.2345 25.2552 13.1328 25.4473 13.1328 25.6508V31.1548C13.1328 31.3583 13.2458 31.5504 13.4154 31.6521L18.1735 34.3985C18.3543 34.5002 18.5691 34.5002 18.7499 34.3985L23.508 31.6521C23.6889 31.5504 23.7906 31.3583 23.7906 31.1548V25.6508C23.7906 25.4473 23.6776 25.2552 23.508 25.1535L18.7499 22.4071V22.4071V22.4071Z" fill="white"/>
</g>
<g id="path-2-link">
<path id="path-2_2" fill-rule="evenodd" clip-rule="evenodd" d="M18.7499 22.4071C18.5691 22.3054 18.3543 22.3054 18.1735 22.4071L13.4154 25.1535C13.2345 25.2552 13.1328 25.4473 13.1328 25.6508V31.1548C13.1328 31.3583 13.2458 31.5504 13.4154 31.6521L18.1735 34.3985C18.3543 34.5002 18.5691 34.5002 18.7499 34.3985L23.508 31.6521C23.6889 31.5504 23.7906 31.3583 23.7906 31.1548V25.6508C23.7906 25.4473 23.6776 25.2552 23.508 25.1535L18.7499 22.4071V22.4071V22.4071Z" fill="url(#paint0_linear_337_373)"/>
</g>
<g id="Clipped">
<mask id="mask0_337_373" style="mask-type:luminance" maskUnits="userSpaceOnUse" x="13" y="22" width="11" height="13">
<path id="path-2_3" fill-rule="evenodd" clip-rule="evenodd" d="M18.7499 22.4071C18.5691 22.3054 18.3543 22.3054 18.1735 22.4071L13.4154 25.1535C13.2345 25.2552 13.1328 25.4473 13.1328 25.6508V31.1548C13.1328 31.3583 13.2458 31.5504 13.4154 31.6521L18.1735 34.3985C18.3543 34.5002 18.5691 34.5002 18.7499 34.3985L23.508 31.6521C23.6889 31.5504 23.7906 31.3583 23.7906 31.1548V25.6508C23.7906 25.4473 23.6776 25.2552 23.508 25.1535L18.7499 22.4071V22.4071V22.4071Z" fill="white"/>
</mask>
<g mask="url(#mask0_337_373)">
<path id="Shape_5" fill-rule="evenodd" clip-rule="evenodd" d="M23.5192 25.1535L18.7384 22.4071C18.6932 22.3845 18.6367 22.3619 18.5915 22.3506L13.2344 31.5278C13.2796 31.5843 13.3361 31.6295 13.3926 31.6634L18.1733 34.4098C18.309 34.4889 18.4672 34.5115 18.6141 34.4663L23.6435 25.2665C23.6096 25.2213 23.5644 25.1874 23.5192 25.1535V25.1535V25.1535Z" fill="url(#paint1_linear_337_373)"/>
</g>
</g>
<g id="Clipped_2">
<mask id="mask1_337_373" style="mask-type:luminance" maskUnits="userSpaceOnUse" x="13" y="22" width="11" height="13">
<path id="path-2_4" fill-rule="evenodd" clip-rule="evenodd" d="M18.7499 22.4071C18.5691 22.3054 18.3543 22.3054 18.1735 22.4071L13.4154 25.1535C13.2345 25.2552 13.1328 25.4473 13.1328 25.6508V31.1548C13.1328 31.3583 13.2458 31.5504 13.4154 31.6521L18.1735 34.3985C18.3543 34.5002 18.5691 34.5002 18.7499 34.3985L23.508 31.6521C23.6889 31.5504 23.7906 31.3583 23.7906 31.1548V25.6508C23.7906 25.4473 23.6776 25.2552 23.508 25.1535L18.7499 22.4071V22.4071V22.4071Z" fill="white"/>
</mask>
<g mask="url(#mask1_337_373)">
<path id="Shape_6" fill-rule="evenodd" clip-rule="evenodd" d="M23.5303 31.6521C23.6659 31.573 23.7677 31.4374 23.8129 31.2904L18.5687 22.3393C18.4331 22.3167 18.2862 22.328 18.1619 22.4071L13.415 25.1422L18.5348 34.4776C18.6027 34.4663 18.6818 34.4437 18.7496 34.4098L23.5303 31.6521V31.6521V31.6521Z" fill="url(#paint2_linear_337_373)"/>
<path id="Shape_7" fill-rule="evenodd" clip-rule="evenodd" d="M23.5311 31.6521L18.7616 34.3985C18.6938 34.4324 18.626 34.455 18.5469 34.4663L18.6373 34.6359L23.9266 31.573V31.5052L23.791 31.2792C23.7684 31.4374 23.6667 31.573 23.5311 31.6521V31.6521V31.6521Z" fill="url(#paint3_linear_337_373)"/>
<path id="Shape_8" fill-rule="evenodd" clip-rule="evenodd" d="M23.5311 31.6521L18.7616 34.3985C18.6938 34.4324 18.626 34.455 18.5469 34.4663L18.6373 34.6359L23.9266 31.573V31.5052L23.791 31.2792C23.7684 31.4374 23.6667 31.573 23.5311 31.6521V31.6521V31.6521Z" fill="url(#paint4_linear_337_373)"/>
</g>
</g>
</g>
</g>
</g>
<defs>
<linearGradient id="paint0_linear_337_373" x1="17.434" y1="22.9107" x2="12.3692" y2="29.04" gradientUnits="userSpaceOnUse">
<stop stop-color="#41873F"/>
<stop offset="0.3288" stop-color="#418B3D"/>
<stop offset="0.6352" stop-color="#419637"/>
<stop offset="0.9319" stop-color="#3FA92D"/>
<stop offset="1" stop-color="#3FAE2A"/>
</linearGradient>
<linearGradient id="paint1_linear_337_373" x1="20.551" y1="35.9199" x2="33.2204" y2="30.8585" gradientUnits="userSpaceOnUse">
<stop offset="0.1376" stop-color="#41873F"/>
<stop offset="0.4032" stop-color="#54A044"/>
<stop offset="0.7136" stop-color="#66B848"/>
<stop offset="0.9081" stop-color="#6CC04A"/>
</linearGradient>
<linearGradient id="paint2_linear_337_373" x1="12.9587" y1="34.8349" x2="23.9688" y2="34.8349" gradientUnits="userSpaceOnUse">
<stop offset="0.0919165" stop-color="#6CC04A"/>
<stop offset="0.2864" stop-color="#66B848"/>
<stop offset="0.5968" stop-color="#54A044"/>
<stop offset="0.8624" stop-color="#41873F"/>
</linearGradient>
<linearGradient id="paint3_linear_337_373" x1="12.9594" y1="36.4016" x2="23.9695" y2="36.4016" gradientUnits="userSpaceOnUse">
<stop offset="0.0919165" stop-color="#6CC04A"/>
<stop offset="0.2864" stop-color="#66B848"/>
<stop offset="0.5968" stop-color="#54A044"/>
<stop offset="0.8624" stop-color="#41873F"/>
</linearGradient>
<linearGradient id="paint4_linear_337_373" x1="11.8247" y1="23.3695" x2="10.7867" y2="37.341" gradientUnits="userSpaceOnUse">
<stop stop-color="#41873F"/>
<stop offset="0.3288" stop-color="#418B3D"/>
<stop offset="0.6352" stop-color="#419637"/>
<stop offset="0.9319" stop-color="#3FA92D"/>
<stop offset="1" stop-color="#3FAE2A"/>
</linearGradient>
<clipPath id="clip0_337_373">
<rect width="50" height="50" fill="white"/>
</clipPath>
</defs>
</svg>
