<svg width="50" height="50" viewBox="0 0 50 50" fill="none" xmlns="http://www.w3.org/2000/svg">
<g clip-path="url(#clip0_330_363)">
<path d="M15.256 25.7173V18.5379C16.7254 18.3226 18.6239 18.3565 19.9851 18.9225C21.2323 19.4077 21.9649 20.6977 21.9226 22.0421C21.9226 23.6199 21.0896 24.9367 19.5685 25.3755C18.1906 25.8338 16.69 25.8224 15.256 25.7173Z" fill="#777DF2"/>
<path fill-rule="evenodd" clip-rule="evenodd" d="M1.23266 6.17511C0 8.59435 0 11.7613 0 18.0952V31.9048C0 38.2387 0 41.4057 1.23266 43.8249C2.31695 45.9529 4.04708 47.6831 6.17511 48.7673C8.59434 50 11.7613 50 18.0951 50H31.9048C38.2386 50 41.4057 50 43.8249 48.7673C45.9529 47.6831 47.6831 45.9529 48.7673 43.8249C50 41.4057 50 38.2387 50 31.9049V18.0952C50 11.7614 50 8.59434 48.7673 6.17511C47.6831 4.04708 45.9529 2.31695 43.8249 1.23266C41.4057 0 38.2387 0 31.9048 0H18.0952C11.7613 0 8.59435 0 6.17511 1.23266C4.04708 2.31695 2.31695 4.04708 1.23266 6.17511ZM10.7143 14.649V36.6361C10.7143 36.8285 10.7976 36.9139 10.9643 36.9139H14.9226C15.0904 36.9139 15.2634 36.8178 15.2351 36.6148V29.7558L15.3986 29.7558C18.9728 29.7566 22.9215 29.7574 25.2143 26.4652C26.0476 25.2686 26.4643 23.7515 26.4643 21.9139C26.4643 20.9524 26.2976 20.0336 25.9851 19.1361C24.6589 15.4805 20.8753 14.2857 17.381 14.2857C16.3042 14.2857 15.2278 14.3178 14.1514 14.3498L14.1513 14.3498C13.0751 14.3819 11.999 14.4139 10.9226 14.4139C10.7768 14.4139 10.7143 14.4994 10.7143 14.649ZM37.4626 23.5764C38.1566 23.7237 38.828 23.9667 39.4583 24.2989C39.6205 24.3816 39.86 24.3081 39.8476 24.0925V20.6179C39.8485 20.4337 39.808 20.2281 39.6128 20.1707C38.2556 19.5786 36.69 19.4706 35.2321 19.4826C32.1133 19.4834 28.6504 21.1244 28.6579 24.7805C28.636 26.3923 29.4396 27.8573 30.7207 28.7711C31.6373 29.4224 32.6359 29.9432 33.6891 30.3191C33.7744 30.3515 33.8749 30.3869 33.9858 30.426C34.8187 30.7197 36.2383 31.2202 36.2383 32.1768C36.2499 33.3064 34.7262 33.3809 33.9574 33.3809C32.216 33.3573 30.4316 32.9153 28.9262 32.0049C28.8012 31.8977 28.6413 32.0279 28.6579 32.1768V35.8922C28.6516 36.0614 28.746 36.2274 28.8926 36.3051C30.4291 37.0257 32.178 37.2857 33.8568 37.2683C37.0817 37.268 40.8437 35.7157 40.7664 31.8329C40.8227 28.7138 37.9616 27.1622 35.4333 26.2942C35.3539 26.2618 35.2635 26.227 35.1654 26.1891C34.3733 25.8836 33.0796 25.3846 33.0519 24.4709C33.0532 22.6316 36.5707 23.3666 37.4626 23.5764Z" fill="#777DF2"/>
</g>
<defs>
<clipPath id="clip0_330_363">
<rect width="50" height="50" fill="white"/>
</clipPath>
</defs>
</svg>
