<svg width="50" height="50" viewBox="0 0 50 50" fill="none" xmlns="http://www.w3.org/2000/svg">
<g clip-path="url(#clip0_327_413)">
<path d="M0 18.0952C0 11.7613 0 8.59435 1.23266 6.17511C2.31695 4.04708 4.04708 2.31695 6.17511 1.23266C8.59435 0 11.7613 0 18.0952 0H31.9048C38.2387 0 41.4057 0 43.8249 1.23266C45.9529 2.31695 47.6831 4.04708 48.7673 6.17511C50 8.59435 50 11.7613 50 18.0952V31.9048C50 38.2387 50 41.4057 48.7673 43.8249C47.6831 45.9529 45.9529 47.6831 43.8249 48.7673C41.4057 50 38.2387 50 31.9048 50H18.0952C11.7613 50 8.59435 50 6.17511 48.7673C4.04708 47.6831 2.31695 45.9529 1.23266 43.8249C0 41.4057 0 38.2387 0 31.9048V18.0952Z" fill="#001E36"/>
<path d="M10.7144 36.6362V14.649C10.7144 14.4994 10.7769 14.4139 10.9227 14.4139C13.0756 14.4139 15.2275 14.2857 17.381 14.2857C20.8754 14.2857 24.659 15.4805 25.9852 19.1361C26.2977 20.0336 26.4644 20.9524 26.4644 21.9139C26.4644 23.7515 26.0477 25.2686 25.2144 26.4652C22.8865 29.8077 18.8519 29.7558 15.2352 29.7558V36.6148C15.2635 36.8178 15.0904 36.9139 14.9227 36.9139H10.9644C10.7977 36.9139 10.7144 36.8285 10.7144 36.6362ZM15.256 18.5379V25.7173C16.69 25.8224 18.1907 25.8338 19.5685 25.3755C21.0896 24.9367 21.9227 23.6199 21.9227 22.0421C21.965 20.6977 21.2324 19.4077 19.9852 18.9225C18.6239 18.3565 16.7254 18.3226 15.256 18.5379Z" fill="#31A8FF"/>
<path d="M39.4584 24.2989C38.828 23.9667 38.1567 23.7237 37.4626 23.5764C36.5708 23.3666 33.0533 22.6316 33.0519 24.4709C33.0831 25.4977 34.7131 26.0008 35.4333 26.2942C37.9616 27.1622 40.8227 28.7138 40.7665 31.8329C40.8438 35.7158 37.0817 37.268 33.8569 37.2683C32.1781 37.2857 30.4291 37.0257 28.8927 36.3051C28.746 36.2274 28.6516 36.0614 28.6579 35.8922V32.1769C28.6414 32.0279 28.8013 31.8977 28.9263 32.0049C30.4317 32.9153 32.216 33.3573 33.9575 33.3809C34.7263 33.3809 36.2499 33.3064 36.2384 32.1769C36.2384 31.0929 34.4157 30.5945 33.6892 30.3191C32.636 29.9432 31.6374 29.4224 30.7207 28.7711C29.4397 27.8573 28.6361 26.3923 28.6579 24.7805C28.6504 21.1244 32.1134 19.4834 35.2321 19.4826C36.6901 19.4706 38.2557 19.5786 39.6129 20.1707C39.8081 20.2281 39.8485 20.4337 39.8477 20.6179V24.0925C39.8601 24.3081 39.6205 24.3816 39.4584 24.2989Z" fill="#31A8FF"/>
</g>
<defs>
<clipPath id="clip0_327_413">
<rect width="50" height="50" fill="white"/>
</clipPath>
</defs>
</svg>
