<svg width="50" height="50" viewBox="0 0 50 50" fill="none" xmlns="http://www.w3.org/2000/svg">
<g clip-path="url(#clip0_334_886)">
<path fill-rule="evenodd" clip-rule="evenodd" d="M46.0938 0H3.90625C1.74889 0 0 1.74889 0 3.90625V46.0938C0 48.2511 1.74889 50 3.90625 50H46.0938C48.2511 50 50 48.2511 50 46.0938V3.90625C50 1.74889 48.2511 0 46.0938 0ZM29.398 44.5498V39.1553C30.3766 39.9758 31.4395 40.591 32.5869 41.0012C33.7342 41.4115 34.8926 41.6166 36.0623 41.6166C36.7484 41.6166 37.3475 41.5547 37.8592 41.4311C38.3709 41.3074 38.7984 41.1361 39.1414 40.917C39.4844 40.6979 39.7404 40.4393 39.909 40.1416C40.0777 39.8438 40.1621 39.5205 40.1621 39.1723C40.1621 38.7002 40.0272 38.2787 39.7572 37.9078C39.4873 37.5369 39.1189 37.1941 38.6521 36.8795C38.1854 36.5648 37.6314 36.2615 36.9902 35.9693C36.3492 35.677 35.6574 35.3793 34.915 35.0758C33.0254 34.2891 31.6168 33.3281 30.6889 32.1932C29.7607 31.058 29.2969 29.6869 29.2969 28.0799C29.2969 26.8211 29.55 25.7395 30.0561 24.8348C30.5623 23.9301 31.2512 23.1855 32.1229 22.601C32.9945 22.0166 34.0041 21.5867 35.1514 21.3115C36.2986 21.0361 37.5133 20.8984 38.7955 20.8984C40.0553 20.8984 41.1717 20.9742 42.1445 21.126C43.1174 21.2777 44.0145 21.5109 44.8355 21.8256V26.866C44.4307 26.5852 43.9891 26.3379 43.5111 26.1244C43.033 25.9107 42.541 25.7338 42.035 25.5934C41.5287 25.4527 41.0254 25.3488 40.5248 25.2814C40.0244 25.2141 39.5492 25.1803 39.0992 25.1803C38.4807 25.1803 37.9182 25.2393 37.4121 25.3572C36.9059 25.4754 36.4785 25.641 36.1299 25.8547C35.7812 26.0682 35.5111 26.3238 35.3199 26.6217C35.1287 26.9195 35.0332 27.2537 35.0332 27.6246C35.0332 28.0293 35.14 28.3916 35.3537 28.7119C35.5674 29.0322 35.8711 29.3357 36.2648 29.6223C36.6584 29.909 37.1365 30.1898 37.6988 30.4652C38.2613 30.7406 38.8967 31.0242 39.6053 31.3166C40.5727 31.7211 41.4416 32.151 42.2121 32.6061C42.9824 33.0613 43.6434 33.5754 44.1943 34.1486C44.7455 34.7217 45.1674 35.3764 45.4598 36.1125C45.7521 36.8486 45.8984 37.7057 45.8984 38.6834C45.8984 40.032 45.6426 41.1643 45.1309 42.0801C44.6189 42.9961 43.9244 43.7379 43.0471 44.3055C42.1699 44.8729 41.149 45.2803 39.985 45.5275C38.8209 45.7748 37.592 45.8984 36.2986 45.8984C34.9713 45.8984 33.7088 45.7861 32.5109 45.5613C31.3131 45.3365 30.2754 44.9994 29.398 44.5498ZM27.3438 25.7309H20.4066V45.5078H14.9111V25.7309H8.00781V21.2891H27.3438V25.7309Z" fill="#C12F62"/>
</g>
<defs>
<clipPath id="clip0_334_886">
<rect width="50" height="50" fill="white"/>
</clipPath>
</defs>
</svg>
