<svg width="51" height="51" viewBox="0 0 51 51" fill="none" xmlns="http://www.w3.org/2000/svg">
<path fill-rule="evenodd" clip-rule="evenodd" d="M48.5085 5.29997L38.1535 0.314199C37.6308 0.0625284 37.0637 -0.0330939 36.5122 0.0171053C35.7873 0.075625 35.0875 0.385772 34.5489 0.924386C34.6531 0.820172 34.764 0.731965 34.8794 0.658918C34.7757 0.739222 34.6763 0.826687 34.5817 0.921191L14.7618 18.9924L6.12856 12.4431C5.32491 11.8334 4.2008 11.8834 3.45437 12.5619L0.685426 15.0792C-0.227574 15.9092 -0.228622 17.3447 0.683164 18.176L8.17017 25.0024L0.683164 31.8288C-0.228622 32.6602 -0.227574 34.0956 0.685426 34.9257L3.45437 37.4428C4.2008 38.1215 5.32491 38.1713 6.12856 37.5618L14.7618 31.0124L34.5817 49.0836C34.6894 49.1913 34.8036 49.2898 34.9231 49.379C34.7919 49.3011 34.6662 49.2041 34.5489 49.0868C35.2409 49.7788 36.1989 50.0936 37.1343 49.9823C37.4817 49.9445 37.8263 49.8482 38.1535 49.6906L48.5085 44.7048C49.5956 44.1813 50.2869 43.0813 50.2869 41.8748V41.7544C50.2869 41.9177 50.2691 42.0742 50.2359 42.2229C50.2479 42.1116 50.254 41.9989 50.254 41.8853V8.12609C50.254 8.00806 50.2474 7.89105 50.2345 7.7755C50.2686 7.92612 50.2869 8.08475 50.2869 8.25026V8.13003C50.2869 6.92339 49.5956 5.82342 48.5085 5.29997ZM37.6899 13.6186L22.684 25.0024L37.6899 36.3862V13.6186Z" fill="#C12F62"/>
</svg>
