<svg width="51" height="50" viewBox="0 0 51 50" fill="none" xmlns="http://www.w3.org/2000/svg">
<g clip-path="url(#clip0_102_1168)">
<mask id="mask0_102_1168" style="mask-type:alpha" maskUnits="userSpaceOnUse" x="0" y="0" width="51" height="50">
<path d="M35.596 49.7254C36.3866 50.0335 37.2882 50.0137 38.0863 49.6297L48.4211 44.6568C49.507 44.1343 50.1976 43.035 50.1976 41.8293V8.10965C50.1976 6.90389 49.507 5.80481 48.4211 5.28225L38.0863 0.309158C37.039 -0.194768 35.8133 -0.0713376 34.8942 0.596886C34.7628 0.692344 34.6377 0.798924 34.5205 0.916378L14.7355 18.9665L6.11768 12.4248C5.31544 11.8158 4.19332 11.8657 3.44824 12.5435L0.684209 15.0578C-0.22717 15.8868 -0.228215 17.3206 0.681952 18.151L8.15566 24.9694L0.681952 31.7878C-0.228215 32.6182 -0.22717 34.052 0.684209 34.881L3.44824 37.3952C4.19332 38.0731 5.31544 38.1229 6.11768 37.5141L14.7355 30.9723L34.5205 49.0225C34.8334 49.3356 35.2009 49.5715 35.596 49.7254ZM37.6559 13.574L22.6436 24.9694L37.6559 36.3648V13.574Z" fill="white"/>
</mask>
<g mask="url(#mask0_102_1168)">
<path d="M48.4517 5.29001L38.1089 0.310068C36.9118 -0.266358 35.4809 -0.0232087 34.5413 0.916349L0.682366 31.7878C-0.228354 32.6182 -0.227307 34.052 0.684624 34.8811L3.45033 37.3952C4.19588 38.0731 5.31868 38.1229 6.12139 37.5141L46.8954 6.58193C48.2633 5.54421 50.2281 6.51985 50.2281 8.23684V8.11676C50.2281 6.91153 49.5376 5.81285 48.4517 5.29001Z" fill="#0065A9"/>
<path d="M48.4517 44.6488L38.1089 49.6287C36.9118 50.205 35.4809 49.9619 34.5413 49.0225L0.682366 18.151C-0.228354 17.3206 -0.227307 15.8868 0.684624 15.0577L3.45033 12.5435C4.19588 11.8657 5.31868 11.8158 6.12139 12.4248L46.8954 43.3568C48.2633 44.3945 50.2281 43.4189 50.2281 41.7018V41.822C50.2281 43.0272 49.5376 44.1258 48.4517 44.6488Z" fill="#007ACC"/>
<path d="M38.0764 49.6327C36.8789 50.2086 35.4481 49.9653 34.5085 49.0257C35.6662 50.1833 37.6458 49.3633 37.6458 47.726V2.21905C37.6458 0.581739 35.6662 -0.238236 34.5085 0.919522C35.4481 -0.0201231 36.8789 -0.263616 38.0764 0.312302L48.4175 5.2854C49.5042 5.80796 50.1952 6.90704 50.1952 8.1128V41.8325C50.1952 43.0382 49.5042 44.1373 48.4175 44.6598L38.0764 49.6327Z" fill="#1F9CF0"/>
<path d="M35.596 49.7253C36.3867 50.0331 37.2882 50.0135 38.0861 49.6296L48.4209 44.6565C49.5071 44.1339 50.1977 43.0349 50.1977 41.8292V8.10949C50.1977 6.90373 49.5071 5.80466 48.4211 5.28209L38.0861 0.309006C37.039 -0.194921 35.8133 -0.0714905 34.8941 0.596733C34.7629 0.69219 34.6378 0.79877 34.5203 0.916225L14.7355 18.9663L6.11767 12.4246C5.31545 11.8157 4.19331 11.8656 3.44823 12.5433L0.684209 15.0576C-0.22717 15.8867 -0.228215 17.3205 0.681952 18.1509L8.15567 24.9692L0.681952 31.7877C-0.228215 32.6181 -0.22717 34.0519 0.684209 34.8809L3.44823 37.3951C4.19331 38.073 5.31545 38.1228 6.11767 37.5139L14.7355 30.9722L34.5203 49.0223C34.8333 49.3355 35.2009 49.5714 35.596 49.7253ZM37.6559 13.5738L22.6437 24.9692L37.6559 36.3647V13.5738Z" fill="url(#paint0_linear_102_1168)" fill-opacity="0.25"/>
</g>
</g>
<defs>
<linearGradient id="paint0_linear_102_1168" x1="25.0989" y1="-0.000152783" x2="25.0989" y2="49.9386" gradientUnits="userSpaceOnUse">
<stop stop-color="white"/>
<stop offset="1" stop-color="white" stop-opacity="0"/>
</linearGradient>
<clipPath id="clip0_102_1168">
<rect width="50.3937" height="50" fill="white"/>
</clipPath>
</defs>
</svg>
