<svg width="60" height="60" viewBox="0 0 60 60" fill="none" xmlns="http://www.w3.org/2000/svg">
<circle cx="30" cy="30" r="30" fill="#161B22"/>
<path d="M33.2219 24.2008V28.4797L34.7187 29.4211C34.7728 29.433 34.8288 29.433 34.8828 29.4211L41.3187 25.082C41.314 24.8714 41.237 24.6689 41.1006 24.5084C40.9641 24.3479 40.7766 24.2393 40.5695 24.2008H33.2219Z" fill="white"/>
<path d="M33.2219 30.0758L34.5867 31.0133C34.6506 31.0522 34.724 31.0728 34.7988 31.0728C34.8737 31.0728 34.947 31.0522 35.0109 31.0133C34.7766 31.1547 41.318 26.8117 41.318 26.8117V34.6758C41.335 34.8351 41.3171 34.9963 41.2653 35.148C41.2136 35.2997 41.1293 35.4382 41.0185 35.5539C40.9076 35.6696 40.7728 35.7597 40.6234 35.8179C40.4741 35.876 40.3138 35.9009 40.1539 35.8906H33.2211V30.0758H33.2219ZM26.1563 28.1031C25.9295 28.102 25.7066 28.1623 25.5113 28.2776C25.316 28.3928 25.1555 28.5588 25.0469 28.7578C24.7501 29.2854 24.6077 29.8859 24.6359 30.4906C24.6051 31.0941 24.7477 31.6938 25.0469 32.2188C25.1551 32.4096 25.3116 32.5686 25.5008 32.6798C25.6899 32.791 25.9049 32.8505 26.1243 32.8522C26.3437 32.8539 26.5597 32.7979 26.7506 32.6897C26.9415 32.5816 27.1005 32.4251 27.2117 32.2359C27.5076 31.7134 27.6473 31.1168 27.6141 30.5172C27.648 29.8987 27.5129 29.2827 27.2234 28.7352C27.12 28.5426 26.9659 28.382 26.7778 28.2706C26.5898 28.1592 26.3748 28.1013 26.1563 28.1031Z" fill="white"/>
<path d="M19.682 22.0273V38.7672L32.4164 41.4375V19.5625L19.682 22.0273ZM28.2039 33.2273C27.9657 33.5632 27.6489 33.8356 27.2813 34.021C26.9136 34.2063 26.5062 34.2989 26.0945 34.2906C25.6932 34.2978 25.2962 34.2079 24.9371 34.0286C24.578 33.8493 24.2675 33.586 24.032 33.2609C23.4736 32.4813 23.1942 31.5361 23.2391 30.5781C23.1916 29.5732 23.476 28.5805 24.0484 27.7531C24.2897 27.4109 24.6114 27.1332 24.9852 26.9447C25.3591 26.7561 25.7736 26.6624 26.1922 26.6719C26.5906 26.6639 26.9848 26.7538 27.3404 26.9337C27.6959 27.1137 28.0018 27.3781 28.2312 27.7039C28.7841 28.5005 29.0587 29.4572 29.0125 30.4258C29.0612 31.4235 28.7767 32.409 28.2039 33.2273Z" fill="white"/>
</svg>
