<svg width="60" height="60" viewBox="0 0 60 60" fill="none" xmlns="http://www.w3.org/2000/svg">
<circle cx="30" cy="30" r="30" fill="#161B22"/>
<g clip-path="url(#clip0_12_96)">
<path fill-rule="evenodd" clip-rule="evenodd" d="M30.5 18C23.5938 18 18 23.5938 18 30.5C18 36.0312 21.5781 40.7031 26.5469 42.3594C27.1719 42.4688 27.4062 42.0938 27.4062 41.7656C27.4062 41.4688 27.3906 40.4844 27.3906 39.4375C24.25 40.0156 23.4375 38.6719 23.1875 37.9688C23.0469 37.6094 22.4375 36.5 21.9062 36.2031C21.4688 35.9688 20.8438 35.3906 21.8906 35.375C22.875 35.3594 23.5781 36.2812 23.8125 36.6562C24.9375 38.5469 26.7344 38.0156 27.4531 37.6875C27.5625 36.875 27.8906 36.3281 28.25 36.0156C25.4688 35.7031 22.5625 34.625 22.5625 29.8438C22.5625 28.4844 23.0469 27.3594 23.8438 26.4844C23.7188 26.1719 23.2812 24.8906 23.9688 23.1719C23.9688 23.1719 25.0156 22.8438 27.4062 24.4531C28.4062 24.1719 29.4688 24.0312 30.5313 24.0312C31.5938 24.0312 32.6563 24.1719 33.6563 24.4531C36.0469 22.8281 37.0938 23.1719 37.0938 23.1719C37.7812 24.8906 37.3438 26.1719 37.2188 26.4844C38.0156 27.3594 38.5 28.4688 38.5 29.8438C38.5 34.6406 35.5781 35.7031 32.7969 36.0156C33.25 36.4062 33.6406 37.1562 33.6406 38.3281C33.6406 40 33.625 41.3438 33.625 41.7656C33.625 42.0938 33.8594 42.4844 34.4844 42.3594C36.9659 41.5217 39.1221 39.9268 40.6497 37.7994C42.1773 35.672 42.9993 33.1191 43 30.5C43 23.5938 37.4062 18 30.5 18Z" fill="white"/>
</g>
<defs>
<clipPath id="clip0_12_96">
<rect width="25" height="25" fill="white" transform="translate(18 18)"/>
</clipPath>
</defs>
</svg>
