<svg width="60" height="60" viewBox="0 0 60 60" fill="none" xmlns="http://www.w3.org/2000/svg">
<circle cx="30" cy="30" r="30" fill="#C12F62"/>
<g clip-path="url(#clip0_90_278)">
<path fill-rule="evenodd" clip-rule="evenodd" d="M29.5 12C19.8312 12 12 19.8313 12 29.5C12 37.2438 17.0094 43.7844 23.9656 46.1031C24.8406 46.2563 25.1687 45.7313 25.1687 45.2719C25.1687 44.8563 25.1469 43.4781 25.1469 42.0125C20.75 42.8219 19.6125 40.9406 19.2625 39.9563C19.0656 39.4531 18.2125 37.9 17.4688 37.4844C16.8562 37.1563 15.9813 36.3469 17.4469 36.325C18.825 36.3031 19.8094 37.5938 20.1375 38.1188C21.7125 40.7656 24.2281 40.0219 25.2344 39.5625C25.3875 38.425 25.8469 37.6594 26.35 37.2219C22.4563 36.7844 18.3875 35.275 18.3875 28.5813C18.3875 26.6781 19.0656 25.1031 20.1812 23.8781C20.0063 23.4406 19.3937 21.6469 20.3562 19.2406C20.3562 19.2406 21.8219 18.7813 25.1687 21.0344C26.5688 20.6406 28.0563 20.4438 29.5438 20.4438C31.0313 20.4438 32.5188 20.6406 33.9188 21.0344C37.2656 18.7594 38.7313 19.2406 38.7313 19.2406C39.6938 21.6469 39.0813 23.4406 38.9062 23.8781C40.0219 25.1031 40.7 26.6563 40.7 28.5813C40.7 35.2969 36.6094 36.7844 32.7156 37.2219C33.35 37.7688 33.8969 38.8188 33.8969 40.4594C33.8969 42.8 33.875 44.6813 33.875 45.2719C33.875 45.7313 34.2031 46.2781 35.0781 46.1031C38.5522 44.9303 41.571 42.6976 43.7096 39.7192C45.8483 36.7408 46.9991 33.1667 47 29.5C47 19.8313 39.1688 12 29.5 12Z" fill="white"/>
</g>
<defs>
<clipPath id="clip0_90_278">
<rect width="35" height="35" fill="white" transform="translate(12 12)"/>
</clipPath>
</defs>
</svg>
