<svg width="60" height="60" viewBox="0 0 60 60" fill="none" xmlns="http://www.w3.org/2000/svg">
<circle cx="30" cy="30" r="30" fill="#C12F62"/>
<path d="M41.2143 18H19.7801C18.798 18 18 18.8092 18 19.8025V41.1975C18 42.1908 18.798 43 19.7801 43H41.2143C42.1964 43 43 42.1908 43 41.1975V19.8025C43 18.8092 42.1964 18 41.2143 18ZM25.5558 39.4286H21.8504V27.4978H25.5614V39.4286H25.5558ZM23.7031 25.8683C22.5145 25.8683 21.5547 24.9029 21.5547 23.7199C21.5547 22.5368 22.5145 21.5714 23.7031 21.5714C24.8862 21.5714 25.8516 22.5368 25.8516 23.7199C25.8516 24.9085 24.8917 25.8683 23.7031 25.8683ZM39.4453 39.4286H35.74V33.625C35.74 32.2411 35.7121 30.4609 33.8147 30.4609C31.8839 30.4609 31.5882 31.9676 31.5882 33.5246V39.4286H27.8828V27.4978H31.4375V29.1272H31.4877C31.9844 28.1897 33.1953 27.202 34.9978 27.202C38.7478 27.202 39.4453 29.6741 39.4453 32.8884V39.4286Z" fill="white"/>
</svg>
