<svg width="219" height="200" viewBox="0 0 219 200" fill="none" xmlns="http://www.w3.org/2000/svg">
<path d="M54.7176 31.0447C24.7158 48.1109 0.0852323 62.2074 0.000152633 62.364C-0.0423872 62.5206 8.81262 67.7137 19.7297 73.8832L39.5018 85.1298L66.3668 69.8618L93.2318 54.5937L99.8501 58.3812C103.504 60.4499 106.513 62.2867 106.513 62.4433C106.513 62.6 94.6065 69.4732 80.0781 77.7114C65.5496 85.9516 53.6854 92.8249 53.7728 92.9795C53.8153 93.1361 66.3668 100.4 81.6699 109.067L109.522 124.883L164.325 93.7606C194.457 76.6557 219.085 62.5206 219 62.364C218.915 62.1301 109.565 -0.0793228 109.392 7.62939e-06C109.35 7.62939e-06 84.7619 13.9785 54.7176 31.0447Z" fill="white"/>
<path d="M14.4792 123.907V163.306L13.1925 163.581C11.2626 163.976 7.18832 166.579 5.08863 168.748C-5.5885 179.751 1.48566 197.5 17.4813 199.786C30.9036 201.678 42.8249 190.715 40.7677 178.37C39.7379 172.415 35.2348 166.737 29.617 164.331L26.9165 163.187V127.417V91.6848L24.2583 90.1071C22.7573 89.2792 19.9696 87.6625 18.0397 86.5182L14.4814 84.507V123.907H14.4792Z" fill="white"/>
<path d="M38.1321 119.559C38.2643 137.4 38.3076 137.749 39.2689 139.883C43.0735 148.299 56.2823 158.5 71.7214 165.017C92.2773 173.666 115.02 175.141 134.744 169.128C152.94 163.542 170.127 151.869 176.294 140.814L178 137.711L177.913 119.638L177.784 101.564L151.979 116.262C137.809 124.329 122.456 133.016 117.952 135.578L109.73 140.192L106.801 138.525C105.183 137.594 90.3112 129.527 73.692 120.567C57.1138 111.607 42.7249 103.851 41.7612 103.308C40.7999 102.764 39.5742 102.144 39.0069 101.873L38 101.409L38.1321 119.559Z" fill="white"/>
<path d="M54.7176 31.0447C24.7158 48.1109 0.0852323 62.2074 0.000152633 62.364C-0.0423872 62.5206 8.81262 67.7137 19.7297 73.8832L39.5018 85.1298L66.3668 69.8618L93.2318 54.5937L99.8501 58.3812C103.504 60.4499 106.513 62.2867 106.513 62.4433C106.513 62.6 94.6065 69.4732 80.0781 77.7114C65.5496 85.9516 53.6854 92.8249 53.7728 92.9795C53.8153 93.1361 66.3668 100.4 81.6699 109.067L109.522 124.883L164.325 93.7606C194.457 76.6557 219.085 62.5206 219 62.364C218.915 62.1301 109.565 -0.0793152 109.392 1.52588e-05C109.35 1.52588e-05 84.7619 13.9785 54.7176 31.0447Z" fill="white"/>
<path d="M14.4792 123.907V163.306L13.1925 163.581C11.2626 163.976 7.18832 166.579 5.08863 168.748C-5.5885 179.751 1.48566 197.5 17.4813 199.786C30.9036 201.678 42.8249 190.715 40.7677 178.37C39.7379 172.415 35.2348 166.737 29.617 164.331L26.9165 163.187V127.417V91.6848L24.2583 90.1071C22.7573 89.2792 19.9696 87.6625 18.0397 86.5182L14.4814 84.507V123.907H14.4792Z" fill="white"/>
<path d="M38.1321 119.559C38.2643 137.4 38.3076 137.749 39.2689 139.883C43.0735 148.299 56.2823 158.5 71.7214 165.017C92.2773 173.666 115.02 175.141 134.744 169.128C152.94 163.542 170.127 151.869 176.294 140.814L178 137.711L177.913 119.638L177.784 101.564L151.979 116.262C137.809 124.329 122.456 133.016 117.952 135.578L109.73 140.192L106.801 138.525C105.183 137.594 90.3112 129.527 73.692 120.567C57.1138 111.607 42.7249 103.851 41.7612 103.308C40.7999 102.764 39.5742 102.144 39.0069 101.873L38 101.409L38.1321 119.559Z" fill="white"/>
</svg>
