<svg width="200" height="200" viewBox="0 0 200 200" fill="none" xmlns="http://www.w3.org/2000/svg">
<g clip-path="url(#clip0_107_15)">
<path d="M170.727 29.2729C151.849 10.3958 126.732 -0.000488281 100 -0.000488281C73.2685 -0.000488281 48.1509 10.3958 29.2734 29.2729C10.3963 48.1504 0 73.2684 0 99.9995C0 126.731 10.3963 151.849 29.2734 170.726C48.1509 189.603 73.2685 200 100 200C126.732 200 151.849 189.603 170.727 170.726C189.604 151.849 200 126.731 200 99.9995C200 73.2684 189.604 48.1504 170.727 29.2729ZM100 187.628C51.6812 187.628 12.3711 148.318 12.3711 99.9995C12.3711 51.6807 51.6812 12.3706 100 12.3706C148.319 12.3706 187.629 51.6807 187.629 99.9995C187.629 148.318 148.319 187.628 100 187.628Z" fill="white"/>
<path d="M144.842 55.1578C132.873 43.1892 116.948 36.5974 100 36.5974C83.0524 36.5974 67.127 43.1892 55.1583 55.1578C43.1897 67.1265 36.5979 83.0518 36.5979 99.9995C36.5979 116.947 43.1893 132.872 55.1583 144.841C67.1274 156.81 83.0524 163.402 100 163.402C116.948 163.402 132.873 156.81 144.842 144.841C156.81 132.872 163.402 116.947 163.402 99.9995C163.402 83.0518 156.811 67.1265 144.842 55.1578ZM100 151.03C71.8614 151.03 48.9691 128.138 48.9691 99.9995C48.9691 71.8609 71.8614 48.9685 100 48.9685C128.139 48.9685 151.031 71.8609 151.031 99.9995C151.031 128.138 128.139 151.03 100 151.03Z" fill="white"/>
<path d="M100 73.1953C85.2202 73.1953 73.1959 85.2196 73.1959 99.9994C73.1959 114.779 85.2202 126.804 100 126.804C114.78 126.804 126.804 114.779 126.804 99.9994C126.804 85.2196 114.78 73.1953 100 73.1953Z" fill="white"/>
</g>
<defs>
<clipPath id="clip0_107_15">
<rect width="200" height="200" fill="white" transform="translate(0 -0.000488281)"/>
</clipPath>
</defs>
</svg>
